<svg width="104" height="20" viewBox="0 0 104 20" fill="none" xmlns="http://www.w3.org/2000/svg">
<g id="informator-logo 1" clip-path="url(#clip0_619_239)">
<g id="&#208;&#161;&#208;&#187;&#208;&#190;&#208;&#185;_2_1_">
<g id="&#208;&#161;&#208;&#187;&#208;&#190;&#208;&#185;_1-2">
<path id="Vector" d="M0 0.224609H3.03368V19.7758H0V0.224609Z" fill="#DA2020"/>
<path id="Vector_2" d="M7.47411 19.7758H4.44043V0.224609H7.47411V8.61171H10.8939V0.224609H13.9551V19.7758H10.8939V11.3887H7.47411V19.7758Z" fill="#DA2020"/>
<path id="Vector_3" d="M21.1258 18.373H19.6916C18.1748 18.373 17.0441 17.9523 16.2994 17.1388C15.5548 16.3253 15.1963 15.1192 15.1963 13.5483V6.45155C15.1963 4.88072 15.5548 3.67455 16.2994 2.83304C17.0441 2.01957 18.1748 1.59881 19.6916 1.59881H21.1258V0.196289H24.1594V1.59881H25.5935C27.1104 1.59881 28.2411 2.01957 28.9857 2.83304C29.7304 3.6465 30.0889 4.85267 30.0889 6.4235V13.5203C30.0889 15.0911 29.7304 16.2973 28.9857 17.1107C28.2411 17.9242 27.1104 18.345 25.5935 18.345H24.1594V19.7475H21.1258V18.373ZM19.6916 4.40386C19.278 4.37581 18.8919 4.51607 18.5885 4.79657C18.3403 5.04902 18.2024 5.55393 18.2024 6.2552V13.7447C18.2024 14.4459 18.3403 14.9228 18.5885 15.2033C18.8919 15.4838 19.278 15.6241 19.6916 15.596H21.1258V4.40386H19.6916ZM24.1319 4.40386V15.568H25.566C25.9796 15.596 26.3657 15.4558 26.6691 15.1753C26.9173 14.9228 27.0552 14.4179 27.0552 13.7166V6.2552C27.0552 5.55393 26.9173 5.07708 26.6691 4.79657C26.3657 4.51607 25.9796 4.37581 25.566 4.40386H24.1319Z" fill="#DA2020"/>
<path id="Vector_4" d="M31.1641 4.90884C31.1641 3.33801 31.5502 2.10379 32.35 1.26227C33.1497 0.420757 34.2805 0 35.7422 0C37.2314 0 38.3622 0.420757 39.1619 1.26227C39.9617 2.10379 40.3478 3.33801 40.3478 4.90884V15.0631C40.3478 16.6339 39.9617 17.8682 39.1619 18.7097C38.3622 19.5512 37.2314 19.9719 35.7422 19.9719C34.2529 19.9719 33.1222 19.5512 32.35 18.7097C31.5502 17.8682 31.1641 16.6339 31.1641 15.0631V4.90884ZM34.1977 15.2875C34.1977 15.9888 34.3356 16.4937 34.6114 16.7742C35.2733 17.3633 36.2386 17.3633 36.9005 16.7742C37.1763 16.4937 37.3417 15.9888 37.3417 15.2875V4.71248C37.3417 4.01122 37.2038 3.50631 36.9005 3.22581C36.2386 2.63675 35.2733 2.63675 34.6114 3.22581C34.3356 3.50631 34.1977 4.01122 34.1977 4.71248V15.2875Z" fill="#DA2020"/>
<path id="Vector_5" d="M46.0847 0.224609C47.6016 0.224609 48.7323 0.645367 49.4769 1.45883C50.2216 2.27229 50.5801 3.47847 50.5801 5.04929V7.60189C50.5801 9.17272 50.2216 10.3789 49.4769 11.1924C48.7323 12.0058 47.6016 12.4266 46.0847 12.4266H44.6782V19.7758H41.6445V0.224609H46.0847ZM44.6782 3.02966V9.62152H46.1123C46.526 9.64957 46.9121 9.50932 47.2155 9.22882C47.4637 8.97636 47.6016 8.4995 47.6016 7.77019V4.85294C47.6016 4.15168 47.4637 3.67482 47.2155 3.39431C46.9121 3.11381 46.526 2.97356 46.1123 3.00161L44.6782 3.02966Z" fill="#DA2020"/>
<path id="Vector_6" d="M57.9437 14.1096L60.0121 0.224609H64.2041V19.7758H61.3635V5.75056L59.2675 19.7758H56.3993L54.1378 5.94691V19.7758H51.4902V0.224609H55.7098L57.9437 14.1096Z" fill="#DA2020"/>
<path id="Vector_7" d="M75.8422 19.7755H72.781L72.257 16.2131H68.5614L68.0374 19.7475H65.252L68.3132 0.196289H72.7258L75.8422 19.7755ZM68.9475 13.5764H71.8433L70.3816 3.7026L68.9475 13.5764Z" fill="#DA2020"/>
<path id="Vector_8" d="M74.6006 0.224609H83.9498V3.02966H80.7783V19.7758H77.7722V3.02966H74.6006V0.224609Z" fill="#DA2020"/>
<path id="Vector_9" d="M84.5566 4.90884C84.5566 3.33801 84.9427 2.10379 85.7425 1.26227C86.5423 0.420757 87.6731 0 89.1347 0C90.624 0 91.7547 0.420757 92.5545 1.26227C93.3543 2.10379 93.7404 3.33801 93.7404 4.90884V15.0631C93.7404 16.6339 93.3543 17.8682 92.5545 18.7097C91.7547 19.5512 90.624 19.9719 89.1347 19.9719C87.6455 19.9719 86.5147 19.5512 85.7425 18.7097C84.9427 17.8682 84.5566 16.6339 84.5566 15.0631V4.90884ZM87.5903 15.2875C87.5903 15.9888 87.7282 16.4937 88.004 16.7742C88.6659 17.3633 89.6312 17.3633 90.293 16.7742C90.5688 16.4937 90.7067 15.9888 90.7067 15.2875V4.71248C90.7067 4.01122 90.5688 3.50631 90.293 3.22581C89.6312 2.63675 88.6659 2.63675 88.004 3.22581C87.7282 3.50631 87.5903 4.01122 87.5903 4.71248V15.2875Z" fill="#DA2020"/>
<path id="Vector_10" d="M99.5046 0.224609C101.021 0.224609 102.152 0.645367 102.897 1.45883C103.641 2.27229 104 3.47847 104 5.04929V7.60189C104 9.17272 103.641 10.3789 102.897 11.1924C102.152 12.0058 101.021 12.4266 99.5046 12.4266H98.0706V19.7758H95.0645V0.224609H99.5046ZM98.0706 3.02966V9.62152H99.5046C99.9183 9.64957 100.304 9.50932 100.608 9.22882C100.856 8.97636 100.994 8.4995 100.994 7.77019V4.85294C100.994 4.15168 100.856 3.67482 100.608 3.39431C100.304 3.11381 99.9183 2.97356 99.5046 3.00161L98.0706 3.02966Z" fill="#DA2020"/>
</g>
</g>
</g>
<defs>
<clipPath id="clip0_619_239">
<rect width="104" height="20" fill="white"/>
</clipPath>
</defs>
</svg>
