<svg width="176" height="35" viewBox="0 0 176 35" fill="none" xmlns="http://www.w3.org/2000/svg">
<mask id="mask0_619_156" style="mask-type:luminance" maskUnits="userSpaceOnUse" x="1" y="8" width="174" height="24">
<path d="M174.06 8.1665L174.384 31.4999H1.61731L1.29395 8.1665H174.06Z" fill="white"/>
</mask>
<g mask="url(#mask0_619_156)">
<path d="M6.69855 21.1193V14.8266L4.61981 15.6534C4.61981 15.6534 4.11168 16.7098 4.20407 18.2715C4.25026 19.5117 4.98937 20.9355 5.5437 21.5786L6.69855 21.1193ZM12.2881 8.1665C12.75 8.21244 13.5353 8.44209 14.0896 8.90141C14.6902 9.45259 14.8287 10.3253 14.644 11.1061C14.4592 11.7951 14.2282 12.1626 13.4891 12.6678C12.75 13.1731 12.1957 13.219 12.1957 13.219V16.2505L13.6277 17.3529L12.1957 18.639V22.7728C12.1957 22.7728 13.3967 21.8082 14.3206 19.925C14.3206 19.925 14.3668 19.8332 14.4592 19.6035C14.5516 20.1088 14.5054 21.1652 13.9049 22.4513C13.4429 23.4618 12.6576 24.3804 11.5951 24.9316C9.79357 25.8962 8.40774 25.988 6.97572 25.7124C5.26653 25.3909 3.69593 24.4723 2.67966 22.8647C1.94055 21.7164 1.61719 20.4303 1.61719 19.0064C1.66338 16.2046 3.83451 13.8161 6.329 12.8975C6.65236 12.8056 6.74475 12.7138 7.1605 12.6678C6.97572 12.8056 6.74475 12.9434 6.46758 13.1271C5.68228 13.6324 4.98937 14.6429 4.66601 15.4237L9.47021 13.3568V19.8332L5.63609 21.7164C6.09803 22.3135 7.43766 23.1862 8.59252 23.324C10.5327 23.5537 11.8261 22.8187 11.8261 22.8187V18.593L10.3941 17.3529L11.8261 16.2505V13.219C10.9946 13.1271 9.83976 12.7597 9.28543 12.6219C8.40774 12.4382 5.5437 11.6573 5.08176 11.5655C4.61981 11.5195 4.06548 11.5195 3.74212 11.7951C3.41876 12.0707 3.18779 12.6219 3.32637 13.0812C3.41876 13.3568 3.60354 13.4946 3.74212 13.6324C3.74212 13.6324 3.55735 13.6324 3.28018 13.4487C2.72585 13.1271 2.3101 12.53 2.26391 11.7492C2.23694 11.2685 2.33296 10.7889 2.543 10.3551C2.75303 9.92138 3.07024 9.54765 3.46496 9.26887C4.20407 8.80955 5.03556 8.53396 6.00564 8.67175C7.43766 8.85548 9.33163 9.63632 11.0408 10.0497C11.6875 10.1875 12.1957 10.2334 12.6576 10.0038C12.8886 9.86598 13.2581 9.45259 12.9348 8.94734C12.5652 8.35023 11.8723 8.35023 11.2718 8.25837C11.8261 8.1665 11.9185 8.1665 12.2881 8.1665Z" fill="white"/>
</g>
<mask id="mask1_619_156" style="mask-type:luminance" maskUnits="userSpaceOnUse" x="1" y="8" width="174" height="24">
<path d="M174.06 8.1665L174.384 31.4999H1.61731L1.29395 8.1665H174.06Z" fill="white"/>
</mask>
<g mask="url(#mask1_619_156)">
<path d="M31.0894 19.4655L28.8721 21.0272V15.8828L31.0894 19.4655ZM30.997 14.5049L28.5487 15.9288L26.239 17.123V23.0941L25.3613 23.7831L25.4999 23.9209L26.3776 23.2319L29.1031 25.5744L33.8149 21.9918L33.7225 21.854L31.0894 23.829L28.8721 21.9458V21.2109L33.1682 18.1794L30.997 14.5049Z" fill="white"/>
</g>
<mask id="mask2_619_156" style="mask-type:luminance" maskUnits="userSpaceOnUse" x="1" y="8" width="174" height="24">
<path d="M174.06 8.1665L174.384 31.4999H1.61731L1.29395 8.1665H174.06Z" fill="white"/>
</mask>
<g mask="url(#mask2_619_156)">
<path d="M18.6166 27.917C19.2172 28.0548 20.3258 28.1467 21.6655 27.5036C23.1437 26.8147 23.698 25.2989 23.698 23.7832L23.7442 21.6244V16.8475L24.6681 16.1585L24.5757 16.0207L23.6518 16.7097L21.6655 14.4131L18.6166 16.6637V9.03906L15.5216 11.5653C15.6602 11.6572 16.3531 11.749 16.3531 12.3921V23.0942L14.7363 24.1047L14.8287 24.2425L15.5216 23.7372L17.4618 25.4826L20.5106 23.1401L20.4182 23.0023L19.6791 23.5535L18.6628 22.8645V16.8934L19.8639 16.1585L21.5269 17.858V23.0023C21.5269 24.3803 21.1573 25.9879 20.4182 26.8147C19.6791 27.6414 19.4019 27.6874 18.6166 27.917Z" fill="white"/>
</g>
<mask id="mask3_619_156" style="mask-type:luminance" maskUnits="userSpaceOnUse" x="1" y="8" width="174" height="24">
<path d="M174.06 8.1665L174.384 31.4999H1.61731L1.29395 8.1665H174.06Z" fill="white"/>
</mask>
<g mask="url(#mask3_619_156)">
<path d="M39.7735 27.366C38.5725 27.2282 38.0643 26.5392 38.0643 25.9421C38.0643 25.5747 38.4339 24.8857 39.173 24.7938C39.9121 24.702 40.6512 25.0235 41.2979 25.7584L44.1158 22.7728L43.9772 22.635L43.2381 23.4618C42.4528 22.635 41.5289 22.0839 40.4202 21.9461V12.8056L47.5804 25.6206C47.5804 25.6206 47.7651 25.7584 48.0885 25.7584C48.3657 25.7584 48.2733 25.5747 48.2733 25.5747V12.6678C48.8738 12.6678 49.6591 12.3463 50.121 11.887C51.5069 10.509 50.9525 8.9933 50.814 8.80957C50.7216 9.45262 50.2134 10.1416 49.3357 10.1416C48.1809 10.1416 47.488 9.31482 47.488 9.31482L44.5777 12.4382L44.7163 12.576L45.5016 11.7033C46.4717 12.576 47.026 12.6678 47.7651 12.7138V20.2007L42.5452 10.6928C42.037 9.91193 41.2979 9.22296 40.1431 9.22296C38.8034 9.22296 37.8334 10.3713 37.6948 11.3358C37.5562 12.4382 37.6948 12.7138 37.6948 12.7138C37.6948 12.7138 37.8796 11.4736 38.6649 11.4736C39.3578 11.4736 39.5888 11.8411 39.9121 12.3004V15.3319C39.173 15.3778 37.4176 15.4697 37.279 17.3988C37.279 18.1337 37.741 18.8686 38.1567 19.0983C38.6649 19.4198 39.0806 19.4198 39.0806 19.4198C39.0806 19.4198 38.4801 19.0983 38.6649 18.4552C38.8496 17.9041 39.9121 17.8122 39.9583 18.0419V21.9001C39.3578 21.9001 37.6486 21.9461 36.7709 23.5077C36.2628 24.4264 36.309 25.4828 36.8171 26.2177C37.279 26.8608 38.2029 27.6416 39.7735 27.366Z" fill="white"/>
</g>
<mask id="mask4_619_156" style="mask-type:luminance" maskUnits="userSpaceOnUse" x="1" y="8" width="174" height="24">
<path d="M174.06 8.1665L174.384 31.4999H1.61731L1.29395 8.1665H174.06Z" fill="white"/>
</mask>
<g mask="url(#mask4_619_156)">
<path d="M55.2949 19.4655L52.8928 21.0272V15.8828L55.2949 19.4655ZM55.2025 14.5049L52.708 15.9288L50.5369 17.123V23.0941L49.6592 23.7831L49.7978 23.9209L50.6755 23.2319L53.2161 25.5744L57.928 21.9918L57.8356 21.854L55.2025 23.829L53.0776 21.8999V21.165L57.3736 18.1335L55.2025 14.5049Z" fill="white"/>
</g>
<mask id="mask5_619_156" style="mask-type:luminance" maskUnits="userSpaceOnUse" x="1" y="8" width="174" height="24">
<path d="M174.06 8.1665L174.384 31.4999H1.61731L1.29395 8.1665H174.06Z" fill="white"/>
</mask>
<g mask="url(#mask5_619_156)">
<path d="M61.8545 25.7123L59.5447 23.875L58.5285 24.564L58.4361 24.4262L59.4524 23.6913V18.501C59.4986 16.3882 57.4198 16.8934 57.5584 14.6427C57.6046 13.6322 58.6209 12.8973 59.129 12.6677C59.6833 12.3921 60.2377 12.3921 60.2377 12.3921C60.2377 12.3921 59.2676 12.9433 59.4986 13.77C59.8681 15.0561 62.0854 15.148 62.1316 16.8475V22.7267L63.5636 24.0128L63.9794 23.6913V17.3068L63.3327 16.4341L65.6424 14.459L67.7673 16.2504L66.7972 17.0771V22.7267L68.9222 24.2884L69.2917 24.0588V17.3068L68.414 16.48L70.7238 14.459L72.8949 16.1585L73.7726 15.4236L73.865 15.5614L71.9248 17.2149V22.7267L66.982 25.6664L64.4413 23.7832L61.8545 25.7123Z" fill="white"/>
</g>
<mask id="mask6_619_156" style="mask-type:luminance" maskUnits="userSpaceOnUse" x="1" y="8" width="174" height="24">
<path d="M174.06 8.1665L174.384 31.4999H1.61731L1.29395 8.1665H174.06Z" fill="white"/>
</mask>
<g mask="url(#mask6_619_156)">
<path d="M163.435 19.4655L160.987 21.0272V15.8828L163.435 19.4655ZM163.389 14.5049L160.895 15.9288L158.631 17.123V23.0941L157.661 23.7831L157.8 23.9209L158.677 23.2319L161.403 25.5744L166.115 21.9918L166.022 21.854L163.389 23.829L161.218 21.8999V21.165L165.514 18.1335L163.389 14.5049Z" fill="white"/>
</g>
<path d="M147.13 16.7556L147.638 16.3422L148.977 17.9958V22.9105L148.562 23.4617L150.502 25.5286L152.581 23.5535L151.749 22.7727V16.8015L152.35 16.3422L154.059 17.9498V22.8645L153.366 23.3239L155.537 25.5745L158.401 23.0483L158.262 22.9105L157.569 23.5076L156.368 22.4052V16.8015L157.523 16.0207L157.431 15.8829L156.368 16.6637L154.428 14.5509L151.657 16.6637L149.67 14.6427L146.991 16.6637L145.005 14.6427L142.141 17.0312L142.233 17.169L143.157 16.4341L144.45 17.858V22.8186L143.804 23.3698L145.882 25.6204L148.007 23.5994L147.13 22.7267V16.7556ZM143.111 23.232L143.018 23.0942L142.187 23.7832L141.078 22.543V16.9853L142.048 16.2044L141.91 16.0666L140.986 16.8475L138.999 14.5968L136.043 16.8934L136.413 16.9853L137.152 16.3882L138.353 17.7202V23.3698L137.521 24.0588L137.614 24.1966L138.491 23.4617L140.385 25.5745L143.111 23.232ZM139.138 10.3711L140.801 12.1624L138.722 13.9538L137.059 12.2084L139.138 10.3711Z" fill="white"/>
<mask id="mask7_619_156" style="mask-type:luminance" maskUnits="userSpaceOnUse" x="1" y="8" width="174" height="24">
<path d="M174.06 8.1665L174.384 31.4999H1.61731L1.29395 8.1665H174.06Z" fill="white"/>
</mask>
<g mask="url(#mask7_619_156)">
<path d="M127.82 21.1193V14.8266L125.88 15.6534C125.88 15.6534 125.372 16.7098 125.464 18.2715C125.51 19.5117 126.249 20.9355 126.804 21.5786L127.82 21.1193ZM133.363 8.1665C133.871 8.21244 134.61 8.44209 135.165 8.90141C135.765 9.45259 135.904 10.3253 135.719 11.1061C135.534 11.7951 135.303 12.1626 134.564 12.6678C133.825 13.1731 133.271 13.1271 133.271 13.1271V16.1586L134.657 17.3529L133.271 18.5471V22.635C133.271 22.635 134.426 21.8082 135.396 19.925C135.396 19.925 135.442 19.8332 135.534 19.6035C135.627 20.1088 135.581 21.1652 134.98 22.4513C134.518 23.4618 133.733 24.3804 132.67 24.9316C130.869 25.8962 129.483 25.988 128.051 25.7124C126.342 25.3909 124.771 24.4723 123.755 22.8647C123.016 21.7164 122.692 20.4303 122.692 19.0064C122.739 16.2046 124.91 13.8161 127.404 12.8975C127.681 12.8056 127.82 12.7138 128.236 12.6678C128.051 12.8056 127.82 12.9434 127.543 13.1271C126.757 13.6324 126.065 14.6429 125.741 15.4237L130.499 13.4487V19.925L126.711 21.7164C127.173 22.3135 128.513 23.1862 129.668 23.324C131.608 23.5537 132.855 22.7269 132.855 22.7269V18.5012L131.469 17.3069L132.855 16.1127V13.0812C132.024 12.9893 130.961 12.7138 130.361 12.576C129.483 12.3922 126.619 11.6114 126.157 11.5195C125.695 11.4736 125.141 11.4736 124.817 11.7492C124.494 12.0248 124.263 12.576 124.402 13.0353C124.494 13.3109 124.679 13.4487 124.817 13.5865C124.817 13.5865 124.633 13.5865 124.355 13.4027C123.801 13.0812 123.385 12.4841 123.339 11.7033C123.312 11.2226 123.408 10.743 123.618 10.3092C123.828 9.87545 124.145 9.50172 124.54 9.22294C125.279 8.76362 126.111 8.48803 127.081 8.62582C128.513 8.80955 130.407 9.59039 132.116 10.0038C132.763 10.1416 133.271 10.1875 133.733 9.95784C133.964 9.82005 134.333 9.40666 134.01 8.90141C133.64 8.3043 132.948 8.3043 132.347 8.21244C132.855 8.1665 132.994 8.1665 133.363 8.1665Z" fill="white"/>
</g>
<mask id="mask8_619_156" style="mask-type:luminance" maskUnits="userSpaceOnUse" x="1" y="8" width="174" height="24">
<path d="M174.06 8.1665L174.384 31.4999H1.61731L1.29395 8.1665H174.06Z" fill="white"/>
</mask>
<g mask="url(#mask8_619_156)">
<path d="M169.303 15.6991V18.6847L170.596 19.5574C170.596 19.5574 172.814 17.812 173.645 16.2503C173.645 16.2503 172.629 17.5823 171.289 17.1689C170.134 16.8474 169.58 15.745 169.58 15.745M167.039 23.5534C167.039 23.5534 168.009 21.9917 169.719 22.3133C171.335 22.6348 172.075 24.2883 172.075 24.2883V20.5219L170.735 19.6033C169.534 20.7975 167.317 22.497 167.039 23.5534ZM168.656 26.4012C168.333 26.4931 166.993 26.1715 166.67 24.7936C166.346 23.4616 167.317 22.5889 168.749 21.165L167.039 19.6492V16.8015C167.039 16.8015 168.287 16.2043 169.257 15.6072L171.243 14.3671C171.243 14.3671 171.982 15.2398 172.814 15.1938C174.107 15.102 174.061 14.0915 174.015 13.8618C174.246 14.2293 174.846 15.3776 172.536 17.9038L174.384 19.3277V23.0482C174.384 23.0482 172.259 24.1046 170.181 25.5744C170.181 25.5744 169.026 24.1965 168.056 24.8395C167.409 25.3448 167.732 26.0797 168.656 26.4012Z" fill="white"/>
</g>
<mask id="mask9_619_156" style="mask-type:luminance" maskUnits="userSpaceOnUse" x="1" y="8" width="174" height="24">
<path d="M174.06 8.1665L174.384 31.4999H1.61731L1.29395 8.1665H174.06Z" fill="white"/>
</mask>
<g mask="url(#mask9_619_156)">
<path d="M94.0061 22.1755L96.4082 24.2425V17.9039L94.0061 15.791V22.1755ZM99.1336 16.9852L99.9651 16.2503L100.104 16.3881L99.0874 17.123V23.0482L96.6853 24.4262L94.468 25.7123L91.6501 23.4157L90.911 24.0587L90.7725 23.9209L91.7425 23.2779V16.8474H91.604L94.0523 15.6532L96.1772 14.459L99.1336 16.9852Z" fill="white"/>
</g>
<mask id="mask10_619_156" style="mask-type:luminance" maskUnits="userSpaceOnUse" x="1" y="8" width="174" height="24">
<path d="M174.06 8.1665L174.384 31.4999H1.61731L1.29395 8.1665H174.06Z" fill="white"/>
</mask>
<g mask="url(#mask10_619_156)">
<path d="M104.723 16.3881L106.525 14.5967C106.525 14.5967 106.755 14.8264 106.986 14.9183C107.125 14.9642 107.679 15.2398 108.141 14.9642C108.418 14.8264 108.465 14.7805 108.742 14.5049C108.788 15.8828 108.095 16.8474 107.264 17.2608C106.894 17.4445 105.693 17.7201 104.584 16.48V22.8645L105.924 23.829L106.894 23.0941L106.986 23.2319L104.03 25.6204L101.767 23.6453L100.935 24.3802L100.796 24.2424L101.813 23.186V17.7201L101.074 16.5259L100.242 17.2149L100.104 17.0771L102.968 14.5967L104.723 16.3881Z" fill="white"/>
</g>
<mask id="mask11_619_156" style="mask-type:luminance" maskUnits="userSpaceOnUse" x="1" y="8" width="174" height="24">
<path d="M174.06 8.1665L174.384 31.4999H1.61731L1.29395 8.1665H174.06Z" fill="white"/>
</mask>
<g mask="url(#mask11_619_156)">
<path d="M112.299 19.0522L115.625 14.4131C115.625 14.4131 116.087 14.9183 116.826 15.1021C117.842 15.3777 118.766 14.4131 118.766 14.4131C118.581 15.6532 117.935 17.0771 116.595 17.3068C115.394 17.4905 114.285 16.6178 114.285 16.6178L114.054 16.9393L118.674 23.6454L119.598 22.8645L119.736 23.0023L116.549 25.6664L112.299 19.0522Z" fill="white"/>
</g>
<mask id="mask12_619_156" style="mask-type:luminance" maskUnits="userSpaceOnUse" x="1" y="8" width="174" height="24">
<path d="M174.06 8.1665L174.384 31.4999H1.61731L1.29395 8.1665H174.06Z" fill="white"/>
</mask>
<g mask="url(#mask12_619_156)">
<path d="M109.712 12.8056C109.712 11.7951 109.111 11.198 108.557 11.244L112.022 8.80957V22.681L113.13 23.6455L113.869 23.0484L114.008 23.1862L111.098 25.6206L109.111 23.8293L108.326 24.5182L108.188 24.3804L109.758 23.2321V12.8056H109.712Z" fill="white"/>
</g>
<mask id="mask13_619_156" style="mask-type:luminance" maskUnits="userSpaceOnUse" x="1" y="8" width="174" height="24">
<path d="M174.06 8.1665L174.384 31.4999H1.61731L1.29395 8.1665H174.06Z" fill="white"/>
</mask>
<g mask="url(#mask13_619_156)">
<path d="M86.245 16.7098C86.245 16.7098 85.8293 17.1691 85.2287 17.1691C84.582 17.1691 84.3049 16.7098 84.3049 16.7098V18.593C84.3049 18.593 84.582 18.1337 85.2287 18.1337C85.8755 18.1337 86.245 18.5471 86.245 18.5471V16.7098ZM86.1526 12.6678L84.9978 11.4736L84.3049 11.9788V16.4342C84.3049 16.4342 84.7206 16.9395 85.3673 16.9395C86.014 16.9395 86.1526 16.4342 86.1526 16.4342V12.6678ZM84.3049 25.2531C84.3049 25.2531 85.1363 25.4828 85.7831 24.9775C86.476 24.4263 86.1526 23.6914 86.1526 23.6914V18.9145C86.1526 18.9145 85.9678 18.4093 85.3673 18.4093C84.7206 18.4093 84.3049 18.9145 84.3049 18.9145V25.2531ZM79.2235 12.5759C79.2235 11.6573 78.8077 11.1061 78.2072 11.1061C77.2833 11.1061 77.0524 12.3463 77.0524 12.3463C77.0524 12.3463 76.8676 11.3817 77.7453 10.509C78.2072 10.0038 79.0849 9.31477 80.4707 9.6363C81.9027 9.95782 82.4571 11.0143 82.4571 11.9788V24.8856C82.7008 24.9445 82.9476 24.9905 83.1962 25.0234C83.6119 25.1153 83.8429 25.2072 83.8429 25.2072V9.68223H84.3049V11.7951L87.1227 9.54443L89.2476 11.3817L90.2639 10.5549L90.3563 10.6927L89.34 11.5654V23.5536C89.2938 24.3345 89.1552 25.1153 88.3699 25.5746C86.6608 26.5392 84.582 25.4368 82.7342 25.1612C81.3484 24.9775 79.2235 24.7019 78.6692 25.9421C78.4844 26.3555 78.4844 26.9526 79.1311 27.366C80.3783 28.1468 85.9217 26.0339 87.8156 26.8607C89.5248 27.6416 89.5248 28.8817 89.2938 29.7085C88.8319 31.2702 86.7531 31.5917 86.7531 31.5917C86.7531 31.5917 87.7694 31.0405 87.4923 30.0759C87.3537 29.6166 87.0303 29.4788 85.9216 29.5707C83.5657 29.8463 80.7017 30.9486 78.8077 30.1678C77.8377 29.7544 77.1447 28.6061 77.1909 27.4119C77.2371 25.7584 79.2697 25.0694 79.2697 25.0694V18.8686C79.2235 18.6389 78.161 18.6849 77.8839 19.1442C77.5143 19.8332 78.3458 20.1547 78.3458 20.1547C78.3458 20.1547 77.6991 20.2465 77.1447 19.6494C76.8676 19.3738 76.3132 18.3174 77.0524 17.3069C77.6529 16.4801 78.392 16.3423 79.3159 16.2505L79.2235 12.5759Z" fill="white"/>
</g>
</svg>
