<svg width="104" height="14" viewBox="0 0 104 14" fill="none" xmlns="http://www.w3.org/2000/svg">
<g id="logo.de0b73e70d 1" clip-path="url(#clip0_619_256)">
<g id="Clip path group">
<mask id="mask0_619_256" style="mask-type:luminance" maskUnits="userSpaceOnUse" x="0" y="2" width="11" height="12">
<g id="clip0">
<path id="Vector" d="M0 2.09473H10.9023V13.6403H0V2.09473Z" fill="white"/>
</g>
</mask>
<g mask="url(#mask0_619_256)">
<g id="Group">
<path id="Vector_2" d="M10.1904 2.09473H0.71238C0.318577 2.09473 0 2.43193 0 2.84793V12.8859C0 13.3023 0.318577 13.6399 0.711968 13.6399H10.1904C10.5833 13.6399 10.9019 13.3023 10.9019 12.8859V2.84833C10.9019 2.43233 10.5833 2.09473 10.1904 2.09473Z" fill="#C92027"/>
<path id="Vector_3" d="M1.42142 5.20304H5.98427V5.69344H5.57032C5.32862 5.69344 5.2279 5.77864 5.2279 6.01344V9.32144C5.2279 9.44944 5.2982 9.62064 5.59047 9.62064H5.92302V11.5618H5.57032C5.53991 10.0154 4.51265 10.0686 4.0095 10.0686H2.37839C1.44115 10.0686 1.09873 10.8786 1.08887 11.5618H0.735352V9.62064H0.966782C1.42019 9.62064 1.63148 9.48184 1.90402 8.32984C2.06433 7.63624 2.19587 6.71904 2.19587 6.27064C2.19587 5.99344 2.15518 5.69464 1.65203 5.69464H1.42142V5.20264V5.20304ZM3.53677 9.61904C3.64776 9.61904 3.86892 9.57664 3.86892 9.27784V5.97184C3.86892 5.84224 3.84877 5.69464 3.41592 5.69464H3.06281C2.61968 5.69344 2.66983 5.88664 2.57077 6.85624C2.37962 8.66984 2.15764 8.58424 2.01706 9.51224V9.56584C2.01994 9.58064 2.02734 9.59384 2.03843 9.60384C2.04994 9.61344 2.06351 9.61904 2.0779 9.61944H3.53636L3.53677 9.61904Z" fill="white"/>
<path id="Vector_4" d="M10.2245 8.54148C9.77105 9.94948 9.00564 10.2487 8.29039 10.2487C6.9203 10.2487 5.90332 9.23508 5.90332 7.60308C5.90332 6.16308 6.87056 5.02148 8.29039 5.02148C9.22762 5.02148 9.98275 5.61868 9.98275 6.42948C9.98275 6.79228 9.77105 7.20748 9.25763 7.20748C8.82436 7.20748 8.58266 6.89788 8.58266 6.58868C8.58101 6.46068 8.6102 6.33388 8.66651 6.22068C8.72283 6.10708 8.80504 6.01028 8.90534 5.93908C8.99701 5.87388 9.06648 5.84148 9.06648 5.73588C9.06648 5.63028 8.8852 5.41588 8.46221 5.41588C7.54512 5.41588 7.37535 6.57908 7.37535 7.60388C7.37535 8.67068 7.58664 9.68388 8.55388 9.68388C9.24858 9.68388 9.62142 9.05468 9.84299 8.39308L10.2245 8.54148Z" fill="white"/>
</g>
</g>
</g>
<path id="Vector_5" d="M18.1162 4.28874C18.5454 4.27201 18.9726 4.35425 19.363 4.52874C19.763 4.70868 20.1166 4.97357 20.3976 5.30394V2.33914C20.3976 1.81114 20.3212 1.66914 19.8513 1.51674L19.3046 1.35434V0.643938L23.1399 0.156738V11.4875C23.1399 12.0359 23.2167 12.1779 23.696 12.3203L24.2329 12.4827V13.1935L20.3976 13.6503V12.0463C20.1333 12.5823 19.7288 13.0263 19.2323 13.3251C18.744 13.622 18.173 13.764 17.5983 13.7315C15.6806 13.7315 14.1182 12.0155 14.1182 9.11154C14.1182 6.20794 15.9301 4.28874 18.1162 4.28874ZM18.9692 12.2487C19.2569 12.2647 19.5434 12.1955 19.7958 12.0487C20.0532 11.8966 20.2617 11.6776 20.398 11.4163V6.24794C20.2558 6.01156 20.0515 5.81623 19.8061 5.68194C19.5687 5.55261 19.2983 5.49183 19.0267 5.50674C17.8379 5.50674 17.0133 6.72514 17.0133 8.92834C17.0133 11.1315 17.8091 12.2487 18.9692 12.2487ZM29.4288 4.29914C30.4194 4.26314 31.4039 4.47114 32.3054 4.90834L32.3531 7.12154H31.6625C31.5626 6.58794 31.2847 6.11034 30.8803 5.77474C30.4758 5.43954 29.971 5.26874 29.458 5.29394C28.4989 5.29394 27.9333 5.72034 27.9333 6.39034C27.9333 7.06074 28.4319 7.40594 29.4004 7.64954L30.167 7.86274C31.9026 8.36034 32.7942 9.23354 32.7942 10.7359C32.7942 12.5739 31.1737 13.7107 28.7772 13.7107C27.6169 13.7386 26.4695 13.469 25.4501 12.9291L25.3925 10.5939H26.0732C26.2052 11.2283 26.5476 11.7915 27.0388 12.1811C27.5296 12.5703 28.1364 12.7603 28.7485 12.7159C29.7839 12.7159 30.359 12.2183 30.359 11.5383C30.359 10.8579 29.966 10.5227 28.9593 10.2183L28.1824 10.0051C26.5336 9.54794 25.4788 8.72554 25.4788 7.26354C25.4788 5.42594 26.9459 4.29914 29.4292 4.29914H29.4288ZM37.6933 5.96394C37.9929 5.41514 38.4324 4.96714 38.9614 4.67074C39.4826 4.3761 40.0837 4.24286 40.6846 4.28874C42.4584 4.28874 43.6377 5.30434 43.6377 7.21274V11.8527C43.6377 12.4723 43.791 12.6447 44.7209 12.7667V13.5283H39.9274V12.7667C40.7233 12.6447 40.886 12.5027 40.886 11.9139V7.55794C40.9169 7.32467 40.8978 7.08771 40.8301 6.86194C40.7642 6.64025 40.6501 6.43494 40.4955 6.25994C40.3462 6.09081 40.1586 5.9576 39.9476 5.87074C39.7414 5.78635 39.5172 5.75217 39.2944 5.77114C38.9939 5.75043 38.6935 5.81283 38.4279 5.95114C38.154 6.09449 37.9239 6.30559 37.7607 6.56314V11.9139C37.7607 12.5027 37.8758 12.6447 38.7193 12.7667V13.5283H33.9254V12.7667C34.8845 12.6447 35.0189 12.4723 35.0189 11.8527V6.56354C35.0189 6.01554 34.942 5.88354 34.4623 5.73114L33.9254 5.56874V4.85794L37.7607 4.36034L37.6933 5.96434V5.96394ZM50.013 4.28874C50.5192 4.23786 51.0307 4.30364 51.506 4.48074C51.9915 4.66279 52.4288 4.94862 52.7856 5.31714C53.1549 5.69822 53.4382 6.15032 53.6172 6.64434C53.8009 7.14514 53.8795 7.68194 53.8482 8.21794C53.8655 8.46474 53.8655 8.71234 53.8482 8.95914H48.3831C48.3941 9.40093 48.4875 9.83709 48.6589 10.2463C48.8263 10.6467 49.0708 11.0124 49.3791 11.3235C49.6778 11.6252 50.0366 11.8645 50.4335 12.0267C50.8222 12.1849 51.241 12.2606 51.6622 12.2487C52.3935 12.2619 53.1058 12.0031 53.6756 11.5175V12.2791C53.2288 12.7748 52.6728 13.1658 52.049 13.4231C51.4344 13.6739 50.7755 13.7791 50.1186 13.7311C49.5191 13.775 48.9171 13.6859 48.358 13.4707C47.7869 13.2496 47.2718 12.9108 46.8482 12.4775C46.4101 12.0301 46.0695 11.5011 45.8468 10.9223C45.6186 10.3309 45.5097 9.70226 45.5262 9.07074C45.4933 8.43634 45.5866 7.80154 45.7999 7.20754C46.0085 6.62133 46.3368 6.08225 46.7651 5.62274C47.1794 5.17809 47.6878 4.82602 48.2552 4.59074C48.81 4.36166 49.4111 4.25839 50.013 4.28874ZM48.3354 8.07594H51.4225V7.74074C51.4225 6.21754 50.9432 5.29394 50.0035 5.29394C49.0638 5.29394 48.3642 6.24834 48.3354 8.07594ZM54.4138 5.23314V4.48154H59.3129V5.23314C58.4119 5.33434 58.3062 5.56794 58.6322 6.67474L59.821 10.6143L61.0772 6.67474C61.4221 5.57834 61.3074 5.32434 60.4541 5.23314V4.48154H65.1135V5.23314C64.2507 5.32434 64.1549 5.57834 64.4809 6.67474L65.6697 10.6143L66.8967 6.71554C67.2609 5.58834 67.0981 5.35474 66.2353 5.23314V4.48154H69.2743V5.23314C68.5266 5.38514 68.3157 5.54794 67.8841 6.80674L65.5834 13.5179H63.9054L61.8538 7.36514L59.754 13.5383H58.0765L55.7658 6.71554C55.3823 5.61874 55.1427 5.41554 54.4138 5.23314ZM73.9432 4.29914C74.9339 4.26314 75.9184 4.47114 76.8195 4.90834V7.12154H76.2062C76.1075 6.58714 75.8304 6.10794 75.4251 5.77234C75.0202 5.43634 74.5146 5.26674 74.0008 5.29394C73.0422 5.29394 72.486 5.72034 72.486 6.39034C72.486 7.06074 72.9752 7.40594 73.9432 7.64954L74.7103 7.86274C76.4553 8.36034 77.3374 9.23354 77.3374 10.7359C77.3374 12.5739 75.717 13.7107 73.3201 13.7107C72.1535 13.7418 70.9993 13.4722 69.9744 12.9291V10.5939H70.6551C70.7854 11.2175 71.1192 11.7723 71.5981 12.1603C72.077 12.5483 72.6698 12.7451 73.2724 12.7159C74.3078 12.7159 74.8924 12.2183 74.8924 11.5383C74.8924 10.8579 74.49 10.5227 73.4832 10.2183L72.7067 10.0051C71.0481 9.54794 69.9744 8.72554 69.9744 7.26354C69.9744 5.42594 71.4604 4.29914 73.9432 4.29914ZM78.9287 12.1067C78.9258 11.7856 79.0144 11.4699 79.1848 11.1947C79.3477 10.9296 79.5889 10.7183 79.877 10.5883C80.1567 10.4636 80.4702 10.4301 80.7711 10.4927C81.0766 10.5585 81.3536 10.715 81.5636 10.9407C81.7833 11.1761 81.93 11.4672 81.9866 11.7803C82.0458 12.0979 82.0147 12.4252 81.8966 12.7267C81.7831 13.0201 81.5841 13.275 81.324 13.4599C81.0738 13.6371 80.7721 13.732 80.4628 13.7311C80.0566 13.7287 79.6678 13.5563 79.3808 13.2523C79.0935 12.9483 78.9311 12.5367 78.9287 12.1067ZM86.7718 10.4311C86.7718 11.6191 87.328 12.2487 88.3059 12.2487C88.5912 12.2626 88.8747 12.1976 89.1235 12.0611C89.3804 11.9196 89.5944 11.7145 89.7438 11.4667V6.56274C89.7438 6.01474 89.6768 5.88274 89.207 5.73074L88.6607 5.56794V4.85714L92.4955 4.35954V11.4667C92.4955 12.0151 92.572 12.1571 93.0418 12.2995L93.5787 12.4619V13.1727L89.7438 13.6295V12.0559C89.4549 12.6003 89.0257 13.0471 88.5061 13.3439C87.9947 13.6387 87.4028 13.7738 86.8101 13.7311C86.4294 13.7755 86.0442 13.7311 85.6821 13.5991C85.3146 13.4645 84.9837 13.2496 84.7148 12.9711C84.4363 12.6831 84.2241 12.3405 84.0925 11.9663C83.9573 11.5842 83.9033 11.1794 83.9338 10.7763V6.56274C83.9338 6.01474 83.8574 5.88274 83.3875 5.73074L82.8408 5.56794V4.85714L86.676 4.35954L86.7718 10.4315V10.4311ZM94.7001 11.4771C94.7001 10.0859 95.6587 9.14194 98.2283 8.56314L100.078 8.14714V7.47674C100.122 7.18913 100.101 6.89574 100.017 6.61674C99.9354 6.34314 99.7913 6.09102 99.5955 5.87914C99.4069 5.67443 99.1698 5.5175 98.9049 5.42194C98.6457 5.32936 98.3665 5.30279 98.0938 5.34474C97.7417 5.33964 97.3914 5.3946 97.0588 5.50714C97.2179 5.61714 97.349 5.76754 97.4394 5.94514C97.5299 6.12234 97.5767 6.32114 97.5763 6.52234C97.5741 6.6952 97.5387 6.86614 97.4719 7.02634C97.4069 7.18322 97.311 7.32618 97.1895 7.44714C97.0718 7.5641 96.9302 7.6558 96.7739 7.71634C96.6207 7.77533 96.4562 7.80099 96.2917 7.79154C96.1314 7.80551 95.9699 7.78446 95.819 7.72994C95.6651 7.67396 95.5252 7.58668 95.4088 7.47394C95.2885 7.35734 95.1934 7.21847 95.1292 7.06554C95.0629 6.90944 95.0279 6.74244 95.0261 6.57354C95.0261 5.28354 96.5984 4.27834 98.9571 4.27834C101.315 4.27834 102.792 5.24314 102.792 7.43634V11.4975C102.792 12.2487 103.156 12.5127 103.626 12.5127C103.75 12.5311 103.876 12.5311 104 12.5127V13.2335C103.488 13.568 102.881 13.7385 102.265 13.7211C101.807 13.7695 101.346 13.6539 100.97 13.3959C100.585 13.1359 100.295 12.7459 100.146 12.2895C99.8378 12.7705 99.4057 13.1646 98.8926 13.4327C98.3948 13.6911 97.8325 13.8085 97.2697 13.7715C95.7162 13.7311 94.7001 12.7971 94.7001 11.4771ZM98.7363 12.3399C99.008 12.3528 99.278 12.2923 99.5165 12.1651C99.7626 12.0332 99.9694 11.8417 100.117 11.6091V9.01994L99.3883 9.18234C97.9693 9.51754 97.4707 10.0759 97.4707 10.9999C97.4612 11.1787 97.4871 11.3575 97.5471 11.5247C97.6076 11.6919 97.7005 11.8439 97.8197 11.9703C97.9393 12.0971 98.0828 12.1955 98.2406 12.2591C98.3989 12.3231 98.5678 12.3499 98.7363 12.3399Z" fill="white"/>
</g>
<defs>
<clipPath id="clip0_619_256">
<rect width="104" height="14" fill="white"/>
</clipPath>
</defs>
</svg>
