<svg width="40" height="40" viewBox="0 0 40 40" fill="none" xmlns="http://www.w3.org/2000/svg">
<g clip-path="url(#clip0_455_7507)">
<path d="M11.7829 25.7348C11.7829 25.0705 11.3219 24.6743 10.5086 24.6743C10.1765 24.6743 9.95163 24.7071 9.83398 24.7384V26.8698C9.97328 26.9011 10.1445 26.9116 10.3805 26.9116C11.2474 26.9116 11.7829 26.4736 11.7829 25.7348Z" fill="#A3C344"/>
<path d="M16.8169 24.6968C16.4527 24.6968 16.2173 24.7282 16.0781 24.7608V29.4811C16.2174 29.5138 16.4423 29.5138 16.6457 29.5138C18.1232 29.5243 19.0868 28.711 19.0868 26.9876C19.0972 25.4891 18.2192 24.6968 16.8169 24.6968Z" fill="#A3C344"/>
<path d="M26.171 0H10.1054C7.75836 0 5.84813 1.91156 5.84813 4.25727V19.9999H5.43232C4.48504 19.9999 3.7168 20.7674 3.7168 21.7155V32.1195C3.7168 33.0675 4.48496 33.8349 5.43232 33.8349H5.84813V35.7427C5.84813 38.0909 7.75836 39.9999 10.1054 39.9999H32.0263C34.3718 39.9999 36.2823 38.0909 36.2823 35.7427V10.0758L26.171 0ZM8.21732 23.5931C8.72008 23.5081 9.42676 23.4441 10.4224 23.4441C11.4286 23.4441 12.1457 23.6361 12.6276 24.0219C13.0879 24.3855 13.3985 24.9855 13.3985 25.6917C13.3985 26.3977 13.1631 26.998 12.7348 27.4046C12.1778 27.9289 11.3541 28.1643 10.3905 28.1643C10.176 28.1643 9.98377 28.1537 9.83344 28.1328V30.7127H8.21732V23.5931ZM32.0263 37.3927H10.1054C9.19662 37.3927 8.45658 36.6527 8.45658 35.7427V33.8349H28.8913C29.8388 33.8349 30.6069 33.0675 30.6069 32.1195V21.7155C30.6069 20.7674 29.8388 19.9999 28.8913 19.9999H8.45658V4.25727C8.45658 3.34982 9.1967 2.60978 10.1054 2.60978L25.1956 2.59402V8.1719C25.1956 9.80114 26.5176 11.1243 28.148 11.1243L33.6122 11.1086L33.6737 35.7426C33.6737 36.6527 32.935 37.3927 32.0263 37.3927ZM14.4406 30.68V23.5931C15.04 23.4977 15.8213 23.4441 16.6457 23.4441C18.016 23.4441 18.9045 23.6899 19.6007 24.2141C20.35 24.7711 20.8206 25.659 20.8206 26.9338C20.8206 28.3145 20.3179 29.2678 19.6216 29.8561C18.8619 30.4876 17.7054 30.7871 16.2927 30.7871C15.4466 30.7871 14.8472 30.7335 14.4406 30.68ZM26.1241 26.4841V27.8112H23.5331V30.7127H21.8954V23.4977H26.3058V24.8352H23.5331V26.4841H26.1241Z" fill="#A3C344"/>
</g>
<defs>
<clipPath id="clip0_455_7507">
<rect width="40" height="40" fill="white"/>
</clipPath>
</defs>
</svg>
