<svg width="107" height="75" viewBox="0 0 107 75" fill="none" xmlns="http://www.w3.org/2000/svg">
<path d="M105.181 16.1761C105.181 16.1761 104.145 8.82955 100.954 5.59091C96.9149 1.34659 92.3832 1.32955 90.3125 1.07386C75.4443 2.03198e-07 53.142 0 53.142 0H53.0911C53.0911 0 30.7887 2.03198e-07 15.9205 1.07386C13.8498 1.32955 9.31809 1.34659 5.27855 5.59091C2.08766 8.82955 1.05232 16.1761 1.05232 16.1761C1.05232 16.1761 -2.02332e-08 24.8011 -2.02332e-08 33.4432V41.5398C-2.02332e-08 50.1648 1.06929 58.7898 1.06929 58.7898C1.06929 58.7898 2.10463 66.1364 5.29553 69.375C9.33506 73.6193 14.6476 73.483 17.0068 73.9261C25.4932 74.7443 53.125 75 53.125 75C53.125 75 75.4443 74.9659 90.3125 73.892C92.3832 73.6364 96.9149 73.6193 100.954 69.375C104.145 66.1364 105.181 58.7898 105.181 58.7898C105.181 58.7898 106.25 50.1648 106.25 41.5398V33.4432C106.25 24.8011 105.181 16.1761 105.181 16.1761Z" fill="black" fill-opacity="0.25"/>
<path d="M42.1611 21.3579V51.3238L70.8622 36.392L42.1611 21.3579Z" fill="#EAEAEA"/>
</svg>
