<svg width="40" height="40" viewBox="0 0 40 40" fill="none" xmlns="http://www.w3.org/2000/svg">
<path fill-rule="evenodd" clip-rule="evenodd" d="M36.25 20C36.25 20.454 36.0039 20.8722 35.6071 21.0927L31.8032 23.206C24.2841 27.3832 16.3579 30.7811 8.14799 33.3467L7.03951 33.6931C6.65996 33.8117 6.24662 33.7427 5.92624 33.5071C5.60586 33.2716 5.41666 32.8977 5.41666 32.5L5.41667 22.9167C5.41667 22.265 5.91736 21.7226 6.56698 21.6707L6.94586 21.6403C10.5316 21.3535 14.0898 20.8048 17.592 19.9995C14.0406 19.183 10.4317 18.6304 6.79483 18.3471L6.56959 18.3296C5.91886 18.2789 5.41667 17.736 5.41667 17.0833L5.41667 7.50001C5.41667 7.10236 5.60587 6.72844 5.92624 6.4929C6.24663 6.25735 6.65996 6.1883 7.03951 6.30691L8.14797 6.6533C16.3579 9.2189 24.2841 12.6168 31.8032 16.794L35.6071 18.9073C36.0039 19.1278 36.25 19.546 36.25 20ZM32.4261 20L30.5891 18.9794C23.3761 14.9722 15.7808 11.6967 7.91667 9.20148L7.91667 15.9326C12.8001 16.3731 17.6305 17.2836 22.3405 18.652L22.8487 18.7996C23.3831 18.9549 23.7505 19.4447 23.75 20.0012C23.7495 20.5577 23.3811 21.0468 22.8464 21.201L22.1954 21.3888C17.5314 22.734 12.7501 23.6306 7.91667 24.0667L7.91666 30.7985C15.7808 28.3033 23.3761 25.0278 30.589 21.0206L32.4261 20Z" fill="white"/>
</svg>
