<svg width="80" height="37" viewBox="0 0 80 37" fill="none" xmlns="http://www.w3.org/2000/svg">
<g id="logo_ 1" clip-path="url(#clip0_686_3628)">
<path id="Vector" d="M78.9324 0V6.97519L68.7688 17.189C67.7915 16.7048 66.7097 16.449 65.5961 16.449C61.5597 16.449 58.2734 19.7881 58.2597 23.8947C58.2506 24.2099 58.2643 25.3838 58.9052 27.1059L49.0552 37H42.1143V30.0248L53.5824 18.5L42.1143 6.97519V0H49.0552L60.5233 11.5248L71.987 0H78.9324Z" fill="#D1D1D1"/>
<path id="Vector_2" d="M78.9304 31.6055V37.0002H72.8486C74.5623 35.8628 77.0077 34.0082 78.9304 31.6055Z" fill="#D1D1D1"/>
<path id="Vector_3" d="M27.3115 0V15.4623V27.1333H18.7206C13.9752 27.1333 10.1297 23.2689 10.1297 18.5V0H0.311523V18.5C0.311523 23.6069 2.37516 28.2342 5.70243 31.5825C8.92971 34.8257 13.3479 36.863 18.2388 36.9909V36.9954H18.4752C18.557 36.9954 18.6343 37 18.7161 37C18.7979 37 18.8797 36.9954 18.957 36.9954H27.3024V37H37.1206V18.5V15.4623V0H27.3115Z" fill="#D1D1D1"/>
<g id="Group">
<g id="Group_2">
<path id="Vector_4" d="M79.7762 24.1826C79.7853 26.1331 79.0489 27.9329 77.9671 29.5179C75.9853 32.4368 72.858 34.6249 71.208 35.6526C70.5353 36.0729 70.108 36.2967 70.108 36.2967C63.5444 32.2495 61.4307 28.3394 60.7535 26.1011C60.3898 24.8998 60.4398 24.1826 60.4398 24.1826C60.4398 21.0856 62.8944 18.5778 65.9262 18.5778C66.6126 18.5778 67.2671 18.7057 67.8717 18.9432C68.7489 19.2813 69.5126 19.8431 70.108 20.5603C71.1126 19.3498 72.6126 18.5732 74.2944 18.5732C77.3171 18.5778 79.7762 21.0902 79.7762 24.1826Z" fill="#D1D1D1"/>
</g>
</g>
</g>
<defs>
<clipPath id="clip0_686_3628">
<rect width="80" height="37" fill="white" transform="translate(-0.000976562)"/>
</clipPath>
</defs>
</svg>
